<svg xmlns="http://www.w3.org/2000/svg" viewBox="0 0 43.8 43.656"><defs><style>.a{fill:#2cb742;stroke-width:3px;}.a,.b{stroke:#fff;}.b{fill:#fff;}</style></defs><g transform="translate(2.3 1.5)"><path class="a" d="M0,40,3.44,29.681a19.653,19.653,0,1,1,7.76,7.372Z" transform="translate(0 0)"/><path class="b" d="M34.873,27.939c-.844-1.594-3.954-3.417-3.954-3.417-.7-.4-1.553-.446-1.954.269A16.113,16.113,0,0,1,27.7,26.177a2.363,2.363,0,0,1-3.36-.333l-2.552-2.552L19.233,20.74a2.363,2.363,0,0,1-.333-3.36,16.113,16.113,0,0,1,1.387-1.268c.715-.4.67-1.251.269-1.954,0,0-1.823-3.111-3.417-3.954a1.747,1.747,0,0,0-2.053.309l-1.127,1.127c-3.575,3.575-1.815,7.611,1.76,11.186l3.267,3.267,3.267,3.267c3.575,3.575,7.611,5.335,11.186,1.76l1.127-1.127A1.749,1.749,0,0,0,34.873,27.939Z" transform="translate(-2.955 -2.334)"/></g></svg>